<?xml version="1.0" standalone="no"?>
<!DOCTYPE svg PUBLIC "-//W3C//DTD SVG 20010904//EN"
 "http://www.w3.org/TR/2001/REC-SVG-20010904/DTD/svg10.dtd">
<svg version="1.0" xmlns="http://www.w3.org/2000/svg"
 width="4675.000000pt" height="4676.000000pt" viewBox="0 0 4675.000000 4676.000000"
 preserveAspectRatio="xMidYMid meet">

<g transform="translate(0.000000,4676.000000) scale(0.100000,-0.100000)"
fill="#000000" stroke="none">
<path d="M25225 35098 c-170 -326 -341 -651 -378 -723 -168 -321 -321 -612
-392 -750 -43 -82 -79 -151 -80 -153 -2 -2 -463 -14 -1450 -37 -132 -3 -419
-10 -639 -16 -219 -5 -399 -9 -401 -7 -2 3 -343 580 -607 1028 -422 716 -670
1135 -671 1136 -1 1 -110 -25 -241 -58 -183 -45 -243 -64 -254 -79 -7 -10 -18
-17 -23 -14 -5 4 -9 1 -9 -5 0 -7 -7 -10 -15 -6 -8 3 -15 0 -15 -7 0 -9 -2 -9
-8 0 -11 18 -36 20 -37 3 0 -8 -5 -15 -12 -15 -7 0 -18 -6 -24 -12 -18 -18 -4
-16 33 3 16 9 27 11 24 6 -3 -5 -29 -22 -58 -37 -29 -15 -67 -39 -84 -52 -27
-20 -32 -21 -38 -8 -3 9 -2 14 2 11 5 -3 9 1 9 8 0 8 -8 11 -18 9 -14 -4 -16
0 -12 17 3 12 9 18 12 12 8 -12 53 -23 45 -11 -3 5 -1 9 5 9 5 0 11 -5 13 -12
3 -9 6 -9 12 0 4 7 2 12 -3 12 -6 0 -11 4 -11 9 0 6 9 8 19 6 22 -4 36 20 19
31 -6 4 -8 3 -5 -3 4 -6 0 -13 -8 -16 -9 -4 -12 -1 -8 9 3 7 0 14 -6 14 -6 0
-11 -7 -11 -15 0 -23 -42 -37 -57 -18 -10 12 -12 11 -18 -6 -3 -12 -12 -21
-19 -21 -8 0 -21 -10 -30 -22 -8 -13 -13 -16 -10 -7 3 10 0 20 -7 25 -7 4 -10
3 -6 -2 3 -5 -8 -10 -24 -10 -23 -1 -27 1 -19 11 9 11 7 12 -10 8 -11 -3 -23
-9 -25 -14 -3 -4 -13 -5 -23 -2 -13 4 -13 2 3 -10 17 -14 18 -16 3 -17 -9 0
-20 5 -23 11 -5 7 -13 5 -24 -5 -10 -9 -22 -13 -27 -9 -5 5 -5 4 -1 -2 5 -6
14 -10 20 -10 7 0 13 -9 15 -20 2 -15 1 -16 -6 -7 -7 11 -10 11 -15 -2 -4 -9
-11 -16 -17 -16 -6 0 -8 5 -5 10 3 6 1 10 -4 10 -6 0 -11 -6 -11 -12 0 -9 -4
-8 -10 2 -5 8 -10 10 -10 4 0 -6 -23 -10 -55 -10 -36 0 -51 3 -43 9 9 6 7 7
-5 3 -10 -3 -21 -6 -24 -6 -3 0 0 -7 7 -15 10 -12 10 -15 -3 -15 -9 0 -19 5
-22 10 -5 8 -11 7 -20 0 -8 -7 -18 -9 -23 -7 -4 3 -14 1 -22 -4 -13 -9 -13
-10 0 -6 22 6 50 -11 49 -31 0 -11 -2 -13 -6 -4 -4 10 -8 9 -18 -5 -12 -15
-17 -16 -34 -5 -13 7 -21 8 -21 2 0 -5 -4 -10 -9 -10 -5 0 -8 8 -6 18 1 11 9
16 21 14 13 -3 16 0 9 7 -6 6 -20 8 -33 4 -17 -4 -20 -9 -12 -18 15 -18 -2
-27 -33 -20 -18 5 -28 0 -41 -21 -10 -14 -13 -23 -7 -20 7 5 10 -2 9 -18 -2
-23 -5 -25 -54 -23 -45 2 -50 4 -32 13 14 7 17 14 9 18 -6 4 -8 12 -5 18 4 7
2 8 -4 4 -6 -4 -9 -13 -6 -20 3 -8 -4 -17 -18 -21 -33 -11 -88 -14 -82 -4 6
10 -25 0 -42 -12 -6 -5 -14 -7 -18 -4 -3 3 -2 -1 4 -7 14 -17 13 -31 -2 -22
-10 6 -10 4 0 -7 18 -20 14 -39 -9 -39 -11 0 -17 5 -14 10 4 6 12 7 18 3 7 -4
6 0 -2 10 -14 17 -37 24 -27 8 3 -5 -1 -14 -9 -21 -12 -10 -20 -10 -38 -1 -18
10 -19 11 -2 6 20 -5 20 -5 0 10 -18 14 -20 14 -27 -5 -4 -11 -13 -20 -19 -20
-8 0 -7 5 2 17 12 15 12 16 -4 10 -10 -4 -20 -7 -21 -7 -2 0 -2 -21 0 -48 l4
-47 -55 -3 c-34 -2 -55 1 -55 7 0 6 -5 11 -11 11 -5 0 -8 -4 -4 -9 3 -6 -4 -8
-15 -6 -11 2 -20 -1 -20 -6 0 -6 -5 -7 -11 -3 -14 8 1 24 27 29 11 2 21 4 24
5 3 1 12 3 20 4 8 0 14 7 12 14 -1 6 5 12 13 12 8 0 15 -7 15 -17 0 -16 14
-10 16 8 3 22 5 23 14 9 7 -12 9 -10 7 8 0 12 -2 22 -3 22 -17 0 -541 -229
-739 -323 -82 -39 -151 -71 -152 -72 -1 0 14 -106 33 -235 66 -444 149 -1011
269 -1825 30 -209 58 -390 60 -402 4 -19 -125 -121 -972 -769 -538 -411 -984
-751 -990 -757 -15 -11 12 -22 -493 196 -967 417 -1806 780 -1815 783 -12 5
-196 -208 -376 -436 -450 -567 -827 -1133 -1173 -1764 l-99 -178 205 -207
c113 -113 508 -516 878 -894 l673 -689 -351 -1186 c-193 -652 -355 -1189 -360
-1194 -4 -4 -553 -131 -1219 -281 -667 -150 -1215 -275 -1218 -278 -7 -7 -22
-175 -30 -333 -4 -61 -8 -124 -11 -141 -12 -77 -16 -966 -5 -1180 10 -200 41
-608 56 -745 26 -239 58 -476 63 -481 4 -3 214 -40 467 -82 253 -43 714 -120
1025 -172 311 -53 657 -111 769 -130 112 -19 205 -36 208 -38 2 -3 191 -530
419 -1173 357 -1006 412 -1170 400 -1183 -7 -9 -381 -433 -829 -944 l-816
-927 53 -88 c452 -743 1005 -1465 1610 -2103 l101 -106 1124 558 c1116 555
1125 559 1150 543 14 -10 152 -103 306 -209 154 -106 582 -398 950 -650 369
-252 691 -474 718 -494 41 -31 47 -40 47 -71 0 -40 -24 -311 -74 -855 -20
-209 -56 -603 -81 -875 -25 -272 -52 -550 -58 -617 l-13 -123 136 -55 c540
-224 1226 -447 1816 -591 181 -44 648 -142 794 -166 25 -4 44 30 478 866 249
479 510 981 581 1116 l129 245 1128 32 c621 17 1181 32 1244 32 l115 1 110
-183 c60 -100 347 -582 638 -1072 290 -489 531 -893 535 -896 4 -4 95 16 202
43 685 172 1366 404 1992 679 143 63 519 237 526 243 1 2 -61 419 -137 927
-162 1072 -234 1560 -229 1563 8 6 1840 1419 1909 1473 l56 44 319 -135 c176
-74 688 -293 1139 -486 451 -194 827 -355 837 -357 38 -11 556 641 875 1102
256 371 621 973 744 1227 l22 47 -204 210 c-112 115 -507 517 -878 892 -610
618 -673 684 -668 708 6 28 686 2364 690 2367 3 3 710 165 1077 248 133 30
621 140 1205 273 88 20 162 38 164 39 7 6 30 377 42 684 22 594 -9 1273 -87
1885 -14 110 -28 221 -31 246 -3 26 -9 53 -13 60 -5 8 -183 41 -477 90 -988
162 -1998 330 -1999 332 -13 17 -833 2334 -830 2343 3 8 372 434 821 948 448
514 815 938 815 942 0 3 -32 59 -72 123 -445 719 -968 1399 -1550 2014 l-140
147 -1116 -560 c-615 -309 -1124 -559 -1133 -557 -12 3 -971 652 -1644 1112
-49 34 -161 110 -247 169 -184 124 -167 86 -143 337 8 85 26 285 40 444 14
160 28 313 30 340 3 28 12 129 20 225 9 96 18 198 20 225 3 28 23 257 45 510
22 253 42 476 45 496 l5 35 -222 88 c-671 267 -1329 467 -2003 611 -215 46
-421 85 -449 85 -18 0 -70 -94 -331 -592z m-5595 202 c0 -5 -5 -10 -11 -10 -5
0 -7 5 -4 10 3 6 8 10 11 10 2 0 4 -4 4 -10z m194 -11 c-2 -4 2 -9 8 -11 11
-4 -24 -31 -42 -33 -3 0 -20 -15 -39 -33 -19 -17 -37 -29 -39 -27 -3 3 -11 -3
-18 -13 -12 -16 -13 -15 -14 4 0 12 7 27 15 34 8 7 12 17 8 22 -4 7 6 9 26 6
22 -3 31 -1 31 9 0 8 4 12 9 9 4 -3 16 3 26 14 20 22 8 28 -15 8 -12 -11 -12
-10 -1 4 12 16 55 22 45 7z m-159 -27 c-9 -2 -13 -8 -10 -13 3 -5 -1 -6 -10
-3 -14 6 -14 8 1 25 14 15 19 17 26 7 4 -8 2 -14 -7 -16z m30 -31 c3 -5 1 -12
-5 -16 -5 -3 -10 1 -10 9 0 18 6 21 15 7z m-305 -11 c0 -5 -5 -10 -11 -10 -5
0 -7 5 -4 10 3 6 8 10 11 10 2 0 4 -4 4 -10z m35 -38 c-9 -2 -13 -8 -10 -13 3
-5 -1 -6 -10 -3 -14 6 -14 8 1 25 14 15 19 17 26 7 4 -8 2 -14 -7 -16z m225
-47 c-26 -28 -45 -28 -46 1 -2 20 3 23 32 22 l34 -1 -20 -22z m-140 -85 c5 0
14 8 19 18 7 11 10 13 11 3 0 -11 3 -11 15 -1 9 7 15 8 15 2 0 -6 -24 -30 -52
-54 -29 -23 -59 -50 -66 -58 -8 -8 -11 -9 -7 -3 4 8 1 11 -8 7 -8 -3 -17 2
-21 11 -3 10 -2 14 5 9 6 -3 19 3 30 15 16 17 17 22 5 33 -12 11 -12 15 1 30
13 15 17 15 30 3 8 -8 18 -15 23 -15z m-115 -60 c4 -6 -1 -7 -11 -3 -14 5 -16
3 -11 -11 4 -10 3 -15 -3 -11 -15 9 -12 35 4 35 8 0 18 -4 21 -10z m9 -65 c5
-13 -104 -125 -122 -125 -6 0 -14 -4 -17 -10 -4 -6 1 -7 11 -3 14 5 13 2 -3
-14 -11 -11 -25 -29 -31 -39 -6 -10 -14 -15 -18 -11 -4 4 3 19 17 34 22 24 22
26 4 20 -16 -6 -15 -2 7 17 15 13 24 27 20 31 -4 4 -2 5 4 3 5 -1 25 14 44 35
24 28 35 35 41 25 7 -10 9 -9 9 5 0 9 -5 17 -12 17 -6 0 -8 3 -5 6 4 4 13 1
21 -5 10 -8 16 -9 21 -1 3 5 2 10 -3 10 -6 0 -12 7 -15 14 -4 10 -1 13 8 10 7
-3 16 -11 19 -19z m-91 -25 c4 0 5 4 2 10 -3 6 1 7 9 4 9 -3 16 -10 16 -15 0
-16 -37 -10 -51 9 -11 14 -11 15 1 5 8 -7 18 -13 23 -13z m-732 1 c-14 -9 -7
-31 10 -31 6 0 7 5 3 12 -4 7 -3 8 5 4 6 -4 18 -2 26 4 13 10 15 8 14 -16 0
-25 -2 -26 -9 -9 -7 17 -9 18 -15 4 -4 -10 -14 -15 -25 -12 -10 3 -21 0 -24
-6 -4 -6 -12 -11 -17 -11 -6 0 -7 5 -4 10 3 6 1 10 -4 10 -6 0 -11 -5 -11 -12
0 -6 -3 -8 -7 -5 -3 4 2 17 13 28 19 22 19 22 -3 8 -13 -8 -23 -20 -23 -26 0
-11 -4 -11 -20 -1 -20 13 -20 18 2 22 7 2 29 10 48 19 37 17 64 22 41 8z m729
-32 c0 -14 -17 -10 -23 5 -4 10 -1 13 9 9 7 -3 14 -9 14 -14z m-840 -26 c0 -5
-11 -9 -25 -9 -14 -1 -22 2 -19 7 6 11 44 12 44 2z m773 -17 c4 -11 1 -13 -10
-9 -12 5 -15 2 -10 -10 4 -11 2 -14 -9 -10 -18 7 -18 8 2 27 19 20 20 20 27 2z
m-837 -25 c-4 -6 -14 -11 -23 -11 -13 0 -14 -2 -2 -17 13 -16 12 -17 -3 -4
-15 11 -18 11 -19 0 0 -10 -2 -11 -6 -1 -2 6 -9 12 -14 12 -6 0 -8 -4 -5 -8 2
-4 -13 -8 -35 -8 l-40 -1 48 24 c26 13 53 25 60 27 7 1 16 5 20 9 10 10 27 -9
19 -22z m44 -1 c0 -5 -4 -10 -10 -10 -5 0 -10 5 -10 10 0 6 5 10 10 10 6 0 10
-4 10 -10z m770 -55 c-6 -7 -7 -21 -3 -30 4 -13 3 -16 -5 -11 -13 8 -16 48 -6
59 12 12 25 -4 14 -18z m-987 -17 c2 -7 -3 -19 -12 -26 -14 -11 -14 -11 2 -6
9 3 17 1 17 -5 0 -13 -56 -15 -64 -2 -3 5 4 11 16 14 12 4 19 9 16 12 -3 4
-16 2 -27 -5 -18 -9 -21 -20 -21 -81 0 -60 -2 -70 -15 -65 -13 4 -13 2 -5 -14
5 -10 6 -21 2 -24 -5 -3 -8 -18 -7 -33 4 -54 5 -59 13 -46 4 6 7 -10 8 -35 0
-26 -1 -41 -3 -34 -3 6 -9 10 -13 7 -5 -3 -9 3 -8 12 0 10 -4 56 -10 103 -25
204 -25 198 -7 170 16 -25 16 -25 11 -2 -4 20 -2 21 12 10 13 -11 15 -11 9 4
-5 14 3 23 31 37 44 24 49 25 55 9z m947 -61 c0 -5 -19 -32 -42 -61 -48 -59
-64 -76 -55 -60 3 6 0 11 -8 11 -10 0 -11 -5 -5 -17 12 -22 -22 -56 -42 -44
-9 5 -8 2 2 -11 9 -11 10 -16 3 -11 -9 5 -13 0 -13 -13 0 -12 -4 -21 -9 -21
-21 0 -19 20 6 56 16 24 26 51 25 72 -1 25 3 32 17 32 10 0 22 -7 25 -16 9
-25 45 24 40 54 -3 13 -2 27 1 32 7 12 55 9 55 -3z m-184 -167 c0 -8 -5 -25
-13 -37 -9 -16 -10 -24 -1 -29 7 -5 8 -3 3 7 -8 12 -6 12 8 0 18 -14 13 -36
-5 -25 -6 4 -8 3 -5 -3 4 -6 0 -18 -7 -28 -11 -16 -13 -8 -15 59 -2 70 0 77
16 74 10 -2 18 -10 19 -18z m-836 -10 c0 -5 -2 -10 -4 -10 -3 0 -8 5 -11 10
-3 6 -1 10 4 10 6 0 11 -4 11 -10z m789 -149 c-5 -9 -20 -34 -33 -56 -13 -22
-32 -41 -42 -42 -17 -3 -17 -2 1 6 14 7 16 10 5 11 -8 2 -19 2 -23 1 -5 -1 -5
4 -2 10 4 6 16 9 26 6 15 -4 17 -2 9 13 -14 26 -12 34 3 21 8 -6 17 -8 20 -4
13 13 7 30 -15 40 -20 10 -18 11 19 11 37 0 41 -3 32 -17z m-793 -26 c-1 -33
-16 -33 -16 0 0 14 4 25 9 25 5 0 8 -11 7 -25z m679 -45 c-3 -5 -12 -10 -18
-10 -7 0 -6 4 3 10 19 12 23 12 15 0z m-678 -52 c-3 -7 -5 -2 -5 12 0 14 2 19
5 13 2 -7 2 -19 0 -25z m673 12 c0 -5 -2 -10 -4 -10 -3 0 -8 5 -11 10 -3 6 -1
10 4 10 6 0 11 -4 11 -10z m6 -26 c-25 -18 -36 -18 -36 1 0 8 6 12 14 9 8 -3
17 0 21 6 4 6 10 8 13 5 4 -4 -2 -13 -12 -21z m-14 -66 c-8 -10 -11 -18 -6
-18 5 0 0 -7 -10 -15 -11 -8 -17 -15 -13 -15 9 0 -22 -63 -35 -71 -5 -3 -10
-12 -12 -20 -9 -51 -27 -72 -41 -49 -4 6 -1 9 7 8 9 -2 13 8 13 32 0 24 5 36
17 38 9 2 18 16 20 32 3 22 1 27 -7 20 -9 -7 -17 -5 -26 7 -13 17 -13 17 5 3
18 -14 19 -13 14 1 -5 13 -2 16 14 11 14 -3 19 -1 14 6 -5 8 -2 10 8 6 12 -5
16 1 16 22 0 23 2 26 10 14 8 -13 10 -12 10 3 0 9 -6 17 -12 17 -9 0 -8 3 2
10 22 14 32 -20 12 -42z m38 48 c0 -3 -4 -8 -10 -11 -5 -3 -10 -1 -10 4 0 6 5
11 10 11 6 0 10 -2 10 -4z m-675 -106 c-4 -26 -3 -40 4 -40 6 0 10 8 9 18 -3
35 2 62 12 62 6 0 10 -9 10 -20 0 -11 5 -20 10 -20 11 0 13 -39 4 -64 -3 -9
-10 -16 -14 -16 -10 0 -8 20 4 38 5 8 4 18 -3 25 -11 11 -12 10 -16 -53 -1
-26 12 -53 24 -46 3 2 6 -18 7 -45 0 -31 -4 -48 -10 -46 -6 2 -11 24 -11 48 0
35 -3 43 -16 41 -13 -2 -17 10 -22 56 -4 32 -4 68 0 80 9 37 15 25 8 -18z
m550 -19 c3 -5 2 -12 -3 -15 -5 -3 -9 1 -9 9 0 17 3 19 12 6z m-65 -113 c0 -6
3 -8 6 -5 4 3 15 2 26 -4 19 -10 19 -11 1 -26 -10 -8 -13 -12 -6 -8 9 4 10 -1
2 -25 -6 -16 -15 -27 -21 -24 -5 3 -9 0 -7 -7 3 -27 -1 -40 -12 -33 -6 3 -9
15 -6 25 3 11 1 19 -4 19 -5 0 -9 12 -9 28 0 20 3 23 9 12 6 -8 8 -17 5 -21
-2 -4 0 -10 6 -14 15 -9 23 40 10 64 -6 12 -16 18 -22 15 -7 -4 -8 -3 -4 4 9
15 26 15 26 0z m-466 -48 c3 -29 1 -39 -5 -29 -9 14 -13 86 -4 77 3 -2 7 -24
9 -48z m461 19 c11 -16 1 -19 -13 -3 -7 8 -8 14 -3 14 5 0 13 -5 16 -11z
m-436 -147 c-5 -2 -9 -16 -9 -30 0 -17 3 -22 8 -15 5 7 8 -11 8 -41 -1 -79
-18 -40 -20 45 0 37 -4 65 -7 63 -3 -2 -6 11 -6 29 l-1 32 18 -40 c9 -22 13
-41 9 -43z m351 24 c0 -3 -4 -8 -10 -11 -5 -3 -10 -1 -10 4 0 6 5 11 10 11 6
0 10 -2 10 -4z m70 -10 c0 -19 -17 -29 -25 -16 -3 5 0 10 7 10 9 0 9 3 -2 10
-13 8 -12 10 3 10 9 0 17 -6 17 -14z m-60 -30 c0 -21 21 -31 31 -15 6 10 8 7
6 -8 -1 -18 -6 -21 -26 -16 -17 4 -22 2 -17 -6 4 -6 15 -11 24 -12 11 0 12 -2
4 -6 -6 -2 -10 -9 -7 -13 3 -5 1 -11 -5 -15 -5 -3 -10 -1 -10 4 0 6 -5 11 -11
11 -5 0 -7 -4 -4 -10 11 -18 14 -53 6 -68 -6 -10 -10 -11 -15 -3 -4 6 -3 11 1
11 5 0 9 9 9 20 0 11 -4 20 -9 20 -4 0 -5 19 -2 43 4 23 7 50 8 60 2 20 17 23
17 3z m-353 -203 c-3 -10 -5 -2 -5 17 0 19 2 27 5 18 2 -10 2 -26 0 -35z m306
-2 c4 -1 7 -10 7 -22 0 -12 -4 -17 -11 -13 -7 4 -9 0 -5 -14 4 -12 1 -22 -7
-25 -15 -5 -15 18 -2 58 4 14 2 12 -9 -5 -20 -33 -20 -57 2 -69 10 -6 12 -11
4 -11 -7 0 -11 -4 -8 -9 4 -5 1 -22 -5 -38 -7 -15 -13 -38 -15 -51 -1 -13 -7
-29 -12 -35 -5 -7 -15 -38 -22 -69 -7 -33 -19 -58 -26 -58 -7 0 -10 8 -7 19 3
10 0 22 -6 25 -7 5 -8 1 -4 -11 3 -10 2 -15 -3 -10 -5 5 -9 22 -10 40 l-2 31
19 -25 c16 -20 20 -22 29 -9 15 23 12 30 -10 30 -11 0 -23 7 -27 15 -9 25 7
32 24 10 13 -16 15 -17 10 -2 -5 12 -1 17 13 17 21 0 23 8 22 73 0 24 3 35 10
31 8 -5 9 1 4 17 -16 59 -18 79 -7 79 9 0 9 5 1 20 -10 19 -9 20 17 16 15 -2
31 -5 36 -5z m-250 -78 c3 -5 -8 -8 -24 -8 -16 0 -29 3 -29 8 0 4 11 7 24 7
14 0 27 -3 29 -7z m-13 -17 c0 -2 -7 -7 -16 -10 -8 -3 -12 -2 -9 4 6 10 25 14
25 6z m10 -68 c0 -50 8 -47 12 5 4 58 14 43 16 -23 1 -33 -2 -60 -6 -60 -4 0
-8 -9 -9 -20 -1 -11 2 -18 7 -15 4 3 7 -3 5 -12 -2 -10 -4 -22 -4 -26 -1 -5
-5 -5 -11 -2 -17 10 -11 -7 8 -22 9 -8 11 -12 5 -8 -7 3 -13 2 -13 -2 0 -5 6
-15 13 -22 10 -11 10 -13 0 -7 -7 4 -13 4 -14 -1 0 -4 -2 -17 -4 -27 -2 -11 1
-27 6 -35 8 -13 9 -12 5 4 -3 11 -1 27 4 35 7 10 10 -8 9 -60 -1 -41 3 -86 9
-100 6 -14 11 -18 11 -10 1 10 12 17 32 18 17 1 28 -1 25 -6 -3 -5 -17 -67
-31 -137 -27 -134 -34 -158 -36 -109 -1 31 -3 47 -14 110 -4 26 -3 44 3 48 7
4 9 -3 6 -19 -2 -14 -1 -33 4 -42 8 -14 10 -13 15 1 4 10 3 15 -3 11 -6 -3
-10 -1 -10 4 0 6 5 11 12 11 9 0 9 3 1 11 -14 14 -5 42 10 32 6 -3 7 -1 3 5
-4 7 -3 12 2 12 5 0 12 14 14 30 6 40 -5 38 -22 -5 -8 -19 -17 -35 -21 -35
-13 0 -31 29 -26 42 4 8 6 7 6 -4 1 -10 6 -18 11 -18 15 0 12 16 -6 34 -12 12
-12 16 -2 16 10 0 9 3 -2 10 -8 5 -11 10 -6 10 5 0 4 6 -1 13 -6 6 -11 19 -11
27 -2 40 -12 131 -22 185 -11 64 -13 132 -5 123 3 -3 7 -21 8 -41 2 -20 6 -40
10 -44 7 -7 -1 129 -9 155 -2 7 1 10 6 7 6 -3 10 -25 10 -47z m-33 -10 c-3 -7
-5 -2 -5 12 0 14 2 19 5 13 2 -7 2 -19 0 -25z m163 -238 c5 -3 5 -21 1 -40 -7
-35 -7 -35 -13 -7 -3 16 -1 27 5 27 7 0 7 4 -1 12 -7 7 -11 21 -11 33 1 20 1
20 6 0 3 -11 9 -22 13 -25z m5365 -1560 c1385 -75 2684 -475 3857 -1186 1169
-710 2171 -1740 2857 -2939 950 -1659 1287 -3616 950 -5510 -243 -1369 -847
-2682 -1724 -3750 -248 -302 -649 -718 -920 -954 -1268 -1107 -2755 -1780
-4385 -1985 -390 -50 -574 -60 -1040 -60 -566 0 -910 28 -1440 119 -1329 229
-2599 799 -3658 1642 -458 365 -931 834 -1297 1287 -953 1182 -1560 2606
-1749 4106 -50 390 -60 574 -60 1040 0 466 10 650 60 1040 207 1646 903 3175
2014 4424 149 168 439 461 601 607 1318 1192 2944 1914 4704 2089 393 39 854
50 1230 30z"/>
<path d="M19620 35139 c0 -5 5 -7 10 -4 6 3 10 8 10 11 0 2 -4 4 -10 4 -5 0
-10 -5 -10 -11z"/>
<path d="M19465 35050 c-3 -4 1 -15 9 -23 12 -11 12 -17 3 -28 -7 -8 2 -3 18
11 17 14 32 27 35 29 3 2 -3 1 -12 -2 -10 -4 -18 -2 -18 2 0 13 -28 22 -35 11z"/>
<path d="M19336 34864 c-23 -23 -20 -30 4 -9 11 10 20 20 20 22 0 7 -9 2 -24
-13z"/>
<path d="M18351 34801 c-8 -5 -9 -11 -3 -15 5 -3 12 1 16 9 6 17 6 18 -13 6z"/>
<path d="M18137 34600 c-3 -11 -1 -20 4 -20 5 0 9 9 9 20 0 11 -2 20 -4 20 -2
0 -6 -9 -9 -20z"/>
<path d="M19142 34661 c-11 -7 -11 -9 2 -14 10 -4 16 -1 16 8 0 17 -1 17 -18
6z"/>
<path d="M22925 30769 c-1529 -95 -2994 -658 -4170 -1603 -297 -238 -696 -618
-931 -886 -1695 -1930 -2270 -4588 -1524 -7044 241 -795 632 -1570 1124 -2234
1315 -1770 3280 -2842 5486 -2992 215 -15 730 -15 940 -1 1466 102 2815 600
3965 1466 1276 961 2202 2296 2650 3820 471 1605 390 3301 -233 4855 -260 651
-641 1302 -1086 1855 -238 297 -618 697 -886 931 -1250 1098 -2796 1731 -4480
1834 -189 11 -663 11 -855 -1z m685 -1779 c1269 -61 2417 -508 3380 -1318 165
-139 538 -514 674 -677 787 -948 1222 -2033 1307 -3260 14 -208 6 -679 -16
-885 -73 -705 -259 -1350 -564 -1960 -197 -395 -433 -754 -725 -1105 -134
-160 -508 -534 -676 -675 -935 -786 -2062 -1239 -3275 -1317 -259 -17 -692 -6
-950 23 -1456 166 -2753 860 -3688 1974 -760 906 -1214 2043 -1296 3245 -11
166 -6 676 8 820 79 791 275 1466 613 2115 590 1135 1583 2057 2763 2568 608
264 1305 425 1935 449 91 3 167 7 169 9 7 6 125 4 341 -6z"/>
<path d="M20088 35443 c7 -3 16 -2 19 1 4 3 -2 6 -13 5 -11 0 -14 -3 -6 -6z"/>
<path d="M20048 35433 c7 -3 16 -2 19 1 4 3 -2 6 -13 5 -11 0 -14 -3 -6 -6z"/>
<path d="M19805 35369 c-4 -6 -5 -12 -2 -15 2 -3 7 2 10 11 7 17 1 20 -8 4z"/>
<path d="M19765 35350 c4 -6 11 -8 16 -5 14 9 11 15 -7 15 -8 0 -12 -5 -9 -10z"/>
<path d="M19535 35280 c3 -5 11 -10 16 -10 6 0 7 5 4 10 -3 6 -11 10 -16 10
-6 0 -7 -4 -4 -10z"/>
<path d="M19485 35269 c-4 -6 -5 -12 -2 -15 2 -3 7 2 10 11 7 17 1 20 -8 4z"/>
<path d="M19148 35122 c-4 -12 -2 -20 3 -16 5 3 9 0 9 -6 0 -6 5 -8 11 -4 7 4
7 9 2 13 -6 3 -12 13 -15 21 -3 10 -6 8 -10 -8z"/>
</g>
</svg>
